<svg width="24" height="37" viewBox="0 0 24 37" fill="none" xmlns="http://www.w3.org/2000/svg">
<path d="M11.1307 36.6364V0.272725H13.4602V36.6364H11.1307ZM17.3097 12.2756C17.196 11.1297 16.7083 10.2396 15.8466 9.60511C14.9848 8.97064 13.8153 8.65341 12.3381 8.65341C11.3343 8.65341 10.4867 8.79545 9.79545 9.07955C9.10417 9.35417 8.57386 9.73769 8.20455 10.2301C7.8447 10.7225 7.66477 11.2812 7.66477 11.9062C7.64583 12.4271 7.75473 12.8816 7.99148 13.2699C8.23769 13.6581 8.57386 13.9943 9 14.2784C9.42614 14.553 9.91856 14.7945 10.4773 15.0028C11.036 15.2017 11.6326 15.3722 12.267 15.5142L14.8807 16.1392C16.1496 16.4233 17.3144 16.8021 18.375 17.2756C19.4356 17.7491 20.3542 18.3314 21.1307 19.0227C21.9072 19.714 22.5085 20.5284 22.9347 21.4659C23.3703 22.4034 23.5928 23.4782 23.6023 24.6903C23.5928 26.4706 23.1383 28.0142 22.2386 29.321C21.3485 30.6184 20.0606 31.6269 18.375 32.3466C16.6989 33.0568 14.6771 33.4119 12.3097 33.4119C9.96117 33.4119 7.91572 33.0521 6.1733 32.3324C4.44034 31.6127 3.08617 30.5473 2.1108 29.1364C1.14489 27.7159 0.638258 25.9593 0.590909 23.8665H6.54261C6.6089 24.8419 6.88826 25.6562 7.38068 26.3097C7.88258 26.9536 8.55019 27.4413 9.38352 27.7727C10.2263 28.0947 11.178 28.2557 12.2386 28.2557C13.2803 28.2557 14.1847 28.1042 14.9517 27.8011C15.7282 27.4981 16.3295 27.0767 16.7557 26.5369C17.1818 25.9972 17.3949 25.3769 17.3949 24.6761C17.3949 24.0227 17.2008 23.4735 16.8125 23.0284C16.4337 22.5833 15.875 22.2045 15.1364 21.892C14.4072 21.5795 13.5123 21.2955 12.4517 21.0398L9.28409 20.2443C6.83144 19.6477 4.89489 18.715 3.47443 17.446C2.05398 16.1771 1.34848 14.4678 1.35795 12.3182C1.34848 10.5568 1.81723 9.01799 2.7642 7.7017C3.72064 6.38542 5.0322 5.35795 6.69886 4.61932C8.36553 3.88068 10.2595 3.51136 12.3807 3.51136C14.5398 3.51136 16.4242 3.88068 18.0341 4.61932C19.6534 5.35795 20.9129 6.38542 21.8125 7.7017C22.7121 9.01799 23.1761 10.5426 23.2045 12.2756H17.3097Z" fill="url(#paint0_linear_1_2)"/>
<defs>
<linearGradient id="paint0_linear_1_2" x1="24.5" y1="3.5" x2="3.5" y2="36" gradientUnits="userSpaceOnUse">
<stop stop-color="#F96918"/>
<stop offset="1" stop-color="#FFB800"/>
</linearGradient>
</defs>
</svg>
