<svg width="393" height="9" viewBox="0 0 393 9" fill="none" xmlns="http://www.w3.org/2000/svg">
<path fill-rule="evenodd" clip-rule="evenodd" d="M0 0V1.36426C0 4.5918 3.625 6.49023 6.27734 4.65332L10.0039 2.07227C11.375 1.12402 13.1875 1.12402 14.5586 2.07227L22.2852 7.42285C23.6562 8.37207 25.4688 8.37207 26.8398 7.42285L34.5664 2.07227C35.9375 1.12402 37.75 1.12402 39.1211 2.07227L46.8477 7.42285C47.5312 7.89551 48.3242 8.13281 49.1172 8.13477C49.9141 8.13672 50.7148 7.89941 51.4023 7.42285L59.1289 2.07227C60.5 1.12402 62.3125 1.12402 63.6836 2.07227L71.4102 7.42285C72.7812 8.37207 74.5938 8.37207 75.9648 7.42285L83.6914 2.07227C85.0625 1.12402 86.875 1.12402 88.2461 2.07227L95.9727 7.42285C97.3438 8.37207 99.1562 8.37207 100.527 7.42285L108.254 2.07227C109.625 1.12402 111.438 1.12402 112.809 2.07227L120.535 7.42285C121.906 8.37207 123.719 8.37207 125.09 7.42285L132.816 2.07227C134.188 1.12402 136 1.12402 137.371 2.07227L145.098 7.42285C146.469 8.37207 148.281 8.37207 149.652 7.42285L157.379 2.07227C158.75 1.12402 160.562 1.12402 161.934 2.07227L169.66 7.42285C171.031 8.37207 172.844 8.37207 174.215 7.42285L181.941 2.07227C183.312 1.12402 185.125 1.12402 186.496 2.07227L194.223 7.42285C195.594 8.37207 197.406 8.37207 198.777 7.42285L206.504 2.07227C207.875 1.12402 209.688 1.12402 211.059 2.07227L218.785 7.42285C220.156 8.37207 221.969 8.37207 223.34 7.42285L231.066 2.07227C232.199 1.28906 233.633 1.15234 234.867 1.66309C235.129 1.77051 235.383 1.90723 235.621 2.07227L243.348 7.42285C244.719 8.37207 246.531 8.37207 247.902 7.42285L255.629 2.07227C257 1.12402 258.812 1.12402 260.184 2.07227L267.91 7.42285C269.281 8.37207 271.094 8.37207 272.465 7.42285L280.191 2.07227C281.562 1.12402 283.375 1.12402 284.746 2.07227L292.473 7.42285C293.844 8.37207 295.656 8.37207 297.027 7.42285L304.754 2.07227C306.125 1.12402 307.938 1.12402 309.309 2.07227L317.035 7.42285C318.406 8.37207 320.219 8.37207 321.59 7.42285L329.316 2.07227C330.688 1.12402 332.5 1.12402 333.871 2.07227L341.598 7.42285C342.969 8.37207 344.781 8.37207 346.152 7.42285L353.879 2.07227C355.25 1.12402 357.062 1.12402 358.434 2.07227L366.16 7.42285C367.531 8.37207 369.344 8.37207 370.715 7.42285L378.441 2.07227C379.812 1.12402 381.625 1.12402 382.996 2.07227L386.723 4.65332C389.375 6.49023 393 4.5918 393 1.36426V0H0Z" fill="white"/>
</svg>
