<svg width="143" height="232" viewBox="0 0 143 232" fill="none" xmlns="http://www.w3.org/2000/svg">
<circle r="4" transform="matrix(-1 0 0 1 132 4)" fill="#1E1D1D" fill-opacity="0.15"/>
<circle r="4" transform="matrix(-1 0 0 1 132 36)" fill="#1E1D1D" fill-opacity="0.15"/>
<circle r="4" transform="matrix(-1 0 0 1 132 68)" fill="#1E1D1D" fill-opacity="0.15"/>
<circle r="4" transform="matrix(-1 0 0 1 132 100)" fill="#1E1D1D" fill-opacity="0.05"/>
<circle r="4" transform="matrix(-1 0 0 1 132 132)" fill="#1E1D1D" fill-opacity="0.05"/>
<circle r="4" transform="matrix(-1 0 0 1 132 164)" fill="#1E1D1D" fill-opacity="0.15"/>
<circle r="4" transform="matrix(-1 0 0 1 132 196)" fill="#1E1D1D" fill-opacity="0.15"/>
<circle r="4" transform="matrix(-1 0 0 1 132 228)" fill="#1E1D1D" fill-opacity="0.15"/>
<circle r="4" transform="matrix(-1 0 0 1 100 4)" fill="#1E1D1D" fill-opacity="0.05"/>
<circle r="4" transform="matrix(-1 0 0 1 100 36)" fill="#1E1D1D" fill-opacity="0.05"/>
<circle r="4" transform="matrix(-1 0 0 1 100 68)" fill="#1E1D1D" fill-opacity="0.05"/>
<circle r="4" transform="matrix(-1 0 0 1 68 4)" fill="#1E1D1D" fill-opacity="0.05"/>
<circle r="4" transform="matrix(-1 0 0 1 68 36)" fill="#1E1D1D" fill-opacity="0.05"/>
<circle r="4" transform="matrix(-1 0 0 1 68 68)" fill="#1E1D1D" fill-opacity="0.05"/>
<circle r="4" transform="matrix(-1 0 0 1 36 4)" fill="#1E1D1D" fill-opacity="0.15"/>
<circle r="4" transform="matrix(-1 0 0 1 4 4)" fill="#1E1D1D" fill-opacity="0.15"/>
</svg>
