<svg width="275" height="32" viewBox="0 0 275 32" fill="white" xmlns="http://www.w3.org/2000/svg">
<path d="M21.2197 1.5L16.75 5.96973C14.6789 8.04079 14.6789 11.3987 16.75 13.4697L17.3485 14.0682C19.089 15.8087 19.089 18.6307 17.3485 20.3713V20.3713C15.6169 22.1029 12.8126 22.1131 11.0684 20.3941L10.3595 19.6954C8.27988 17.6458 4.9399 17.6458 2.86029 19.6954V19.6954C0.737452 21.7876 0.737451 25.2123 2.86029 27.3045L4.42 28.8417C5.82325 30.2247 7.71436 30.9999 9.68459 30.9999H72.0549H104.777H114.526C118.779 30.9999 122.878 29.4055 126.013 26.5312V26.5312C132.512 20.5729 142.488 20.5729 148.987 26.5312V26.5312C152.122 29.4055 156.221 30.9999 160.474 30.9999H170.223H202.945H265.315C267.286 30.9999 269.177 30.2247 270.58 28.8417L272.14 27.3045C274.263 25.2123 274.263 21.7876 272.14 19.6954V19.6954C270.06 17.6458 266.72 17.6458 264.641 19.6954L264.544 19.7909C262.461 21.8437 259.112 21.8315 257.044 19.7636L256.42 19.1401C254.686 17.4058 254.686 14.5941 256.42 12.8598V12.8598C258.155 11.1256 258.155 8.31385 256.42 6.57962L251.341 1.5" stroke="url(#paint0_linear_79_76)" stroke-width="2"/>
<defs>
<linearGradient id="paint0_linear_79_76" x1="221.762" y1="14.125" x2="221.092" y2="36.6666" gradientUnits="userSpaceOnUse">
<stop stop-color="#FCCC01"/>
<stop offset="1" stop-color="#FF3500"/>
</linearGradient>
</defs>
</svg>
