<svg width="180" height="232" viewBox="0 0 180 232" fill="none" xmlns="http://www.w3.org/2000/svg">
<circle cx="16" cy="4" r="4" fill="#1E1D1D" fill-opacity="0.15"/>
<circle cx="16" cy="36" r="4" fill="#1E1D1D" fill-opacity="0.15"/>
<circle cx="16" cy="68" r="4" fill="#1E1D1D" fill-opacity="0.15"/>
<circle cx="16" cy="100" r="4" fill="#1E1D1D" fill-opacity="0.05"/>
<circle cx="16" cy="132" r="4" fill="#1E1D1D" fill-opacity="0.05"/>
<circle cx="16" cy="164" r="4" fill="#1E1D1D" fill-opacity="0.15"/>
<circle cx="16" cy="196" r="4" fill="#1E1D1D" fill-opacity="0.15"/>
<circle cx="16" cy="228" r="4" fill="#1E1D1D" fill-opacity="0.15"/>
<circle cx="48" cy="4" r="4" fill="#1E1D1D" fill-opacity="0.15"/>
<circle cx="48" cy="36" r="4" fill="#1E1D1D" fill-opacity="0.15"/>
<circle cx="48" cy="68" r="4" fill="#1E1D1D" fill-opacity="0.15"/>
<circle cx="48" cy="100" r="4" fill="#1E1D1D" fill-opacity="0.05"/>
<circle cx="48" cy="132" r="4" fill="#1E1D1D" fill-opacity="0.05"/>
<circle cx="48" cy="164" r="4" fill="#1E1D1D" fill-opacity="0.15"/>
<circle cx="48" cy="196" r="4" fill="#1E1D1D" fill-opacity="0.15"/>
<circle cx="48" cy="228" r="4" fill="#1E1D1D" fill-opacity="0.15"/>
<circle cx="80" cy="4" r="4" fill="#1E1D1D" fill-opacity="0.05"/>
<circle cx="80" cy="36" r="4" fill="#1E1D1D" fill-opacity="0.05"/>
<circle cx="80" cy="68" r="4" fill="#1E1D1D" fill-opacity="0.05"/>
<circle cx="112" cy="4" r="4" fill="#1E1D1D" fill-opacity="0.05"/>
<circle cx="112" cy="36" r="4" fill="#1E1D1D" fill-opacity="0.05"/>
<circle cx="112" cy="68" r="4" fill="#1E1D1D" fill-opacity="0.05"/>
<circle cx="144" cy="4" r="4" fill="#1E1D1D" fill-opacity="0.15"/>
<circle cx="176" cy="4" r="4" fill="#1E1D1D" fill-opacity="0.15"/>
</svg>
