<svg width="46" height="32" viewBox="0 0 46 32" fill="none" xmlns="http://www.w3.org/2000/svg">
<path fill-rule="evenodd" clip-rule="evenodd" d="M3.54738 20.3048C2.1125 21.1332 1.62087 22.968 2.4493 24.4028L5.4493 29.599C6.27773 31.0339 8.1125 31.5255 9.54738 30.6971L42.4563 11.6971C43.8912 10.8686 44.3829 9.03388 43.5544 7.599L40.5544 2.40285C39.726 0.967964 37.8912 0.476341 36.4563 1.30477L3.54738 20.3048ZM12.6096 22.0009C13.438 23.4358 12.9464 25.2706 11.5115 26.099C10.0766 26.9274 8.24183 26.4358 7.4134 25.0009C6.58497 23.566 7.0766 21.7313 8.51148 20.9028C9.94636 20.0744 11.7811 20.566 12.6096 22.0009ZM20.1717 21.099C21.6066 20.2706 22.0982 18.4358 21.2698 17.0009C20.4414 15.566 18.6066 15.0744 17.1717 15.9028C15.7369 16.7313 15.2452 18.566 16.0737 20.0009C16.9021 21.4358 18.7369 21.9274 20.1717 21.099ZM37.4922 11.099C38.9271 10.2706 39.4187 8.43581 38.5903 7.00092C37.7619 5.56604 35.9271 5.07442 34.4922 5.90285C33.0574 6.73128 32.5657 8.56604 33.3942 10.0009C34.2226 11.4358 36.0574 11.9274 37.4922 11.099ZM28.832 16.099C30.2669 15.2706 30.7585 13.4358 29.9301 12.0009C29.1016 10.566 27.2669 10.0744 25.832 10.9028C24.3971 11.7313 23.9055 13.566 24.7339 15.0009C25.5623 16.4358 27.3971 16.9274 28.832 16.099Z" fill="url(#paint0_linear_1158_2)"/>
<path fill-rule="evenodd" clip-rule="evenodd" d="M29.0359 22.9093L40.9788 24.5876C42.6195 24.8181 44.1366 23.675 44.3671 22.0342L45.202 16.0927C45.3182 15.2655 45.0855 14.4699 44.6157 13.8546C44.4086 14.0137 44.1885 14.1609 43.9562 14.2951L40.3258 16.391C40.7357 16.9876 40.9321 17.7334 40.8235 18.5067C40.5929 20.1475 39.0759 21.2907 37.4352 21.0601C36.401 20.9148 35.5646 20.2585 35.1452 19.3821L29.0359 22.9093ZM16.9631 9.09488L5.01845 7.41629C3.3777 7.1857 1.86073 8.32889 1.63014 9.96963L0.795178 15.9113C0.678845 16.739 0.912366 17.5354 1.38282 18.1509C1.59144 17.9904 1.81312 17.8418 2.04725 17.7066L5.67213 15.6137C5.26185 15.0169 5.06508 14.2708 5.17384 13.4971C5.40431 11.8564 6.92128 10.7132 8.56202 10.9438C9.59657 11.0891 10.4332 11.746 10.8526 12.6228L16.9631 9.09488ZM24.2103 22.2312L28.8211 19.5692C28.4163 19.6923 27.979 19.7312 27.5325 19.6685C25.8917 19.438 24.7487 17.921 24.9791 16.2803C25.0138 16.034 25.0774 15.7987 25.1661 15.5778C25.0028 15.4073 24.8571 15.2145 24.7338 15.0009C23.9057 13.5666 24.3966 11.7326 25.8302 10.9037L25.8319 10.9027L25.8335 10.9018C26.2207 10.6786 26.6369 10.5514 27.0545 10.513L21.7887 9.77298L17.1812 12.4331C17.5845 12.3113 18.02 12.2729 18.4647 12.3354C20.1055 12.5659 21.2487 14.0829 21.0181 15.7237C20.9838 15.9678 20.921 16.2007 20.8336 16.4199C20.9984 16.5915 21.1454 16.7856 21.2697 17.0009C22.0982 18.4357 21.6065 20.2704 20.1716 21.0989C19.7799 21.3251 19.3583 21.4528 18.9356 21.4899L24.2103 22.2312ZM17.5968 21.3018L4.90846 19.5188L7.01039 18.3052L7.01136 18.3047L7.01234 18.3041L15.6705 13.3053L15.6716 13.3047L15.6726 13.3041L15.9945 13.1183C15.5123 13.5701 15.1755 14.1834 15.0764 14.8887C14.9431 15.8379 15.2695 16.7456 15.886 17.3869C15.557 18.2111 15.5953 19.1726 16.0735 20.0009C16.4313 20.6206 16.9768 21.0644 17.5968 21.3018ZM28.4192 10.7047L41.0905 12.4854L38.9921 13.6969L30.3319 18.6969L29.9989 18.8892C30.483 18.437 30.8214 17.8224 30.9208 17.1153C31.054 16.168 30.729 15.262 30.115 14.621C30.4467 13.7953 30.4093 12.8312 29.9299 12.0009C29.5746 11.3853 29.0339 10.9434 28.4192 10.7047Z" fill="url(#paint1_linear_1158_2)"/>
<defs>
<linearGradient id="paint0_linear_1158_2" x1="31.8947" y1="-6.26154" x2="19.7189" y2="25.6244" gradientUnits="userSpaceOnUse">
<stop stop-color="#F96918"/>
<stop offset="1" stop-color="#FFB800"/>
</linearGradient>
<linearGradient id="paint1_linear_1158_2" x1="43.7124" y1="3.93364" x2="14.487" y2="21.5643" gradientUnits="userSpaceOnUse">
<stop stop-color="#F96918"/>
<stop offset="1" stop-color="#FFB800"/>
</linearGradient>
</defs>
</svg>
