<svg width="36" height="22" viewBox="0 0 36 22" fill="none" xmlns="http://www.w3.org/2000/svg">
<path d="M30.0017 13.3714C29.6283 12.8517 29.5447 12.3257 29.7487 11.7928C30.2579 10.3708 37.6736 1.33945 34.5843 1.33945C32.4615 1.36839 29.9086 1.33945 27.8734 1.33945C27.4956 1.43378 27.2511 1.63713 27.0982 2.05089C25.9081 4.86539 24.4518 8.30007 22.3174 10.5075C22.0366 10.7397 21.8615 10.7298 21.5417 10.6439C20.0445 9.02731 21.6409 3.48871 20.7305 1.30021C20.551 0.871826 20.1582 0.678339 19.7564 0.569386C17.7238 0.0725484 13.0816 0.368282 12.3241 1.36839C12.1076 1.65429 12.0774 1.81031 12.2337 1.83597C12.9554 1.95275 13.4663 2.2321 13.767 2.67374C14.3342 3.95499 14.7523 10.7799 13.0816 10.7799C11.4108 10.7799 8.71675 4.08199 7.97664 2.2252C7.77969 1.66613 7.2783 1.34561 6.75001 1.251L1.80728 1.28977C0.938467 1.28977 0.452905 1.72933 0.760846 2.61491C3.33523 9.16908 8.96886 21.8733 17.6094 21.5552C18.475 21.5552 19.9641 21.896 20.6401 21.1264C21.5691 19.8623 20.4361 17.611 22.0291 16.7524C22.4309 16.5331 22.8473 16.7169 23.1924 16.9865C24.9644 18.3703 25.9052 20.7992 28.0903 21.5365C28.4745 21.6663 28.8112 21.6988 29.1002 21.6339L33.7181 21.5561C34.5754 21.5561 35.42 21.1649 35.2425 20.1136C34.5693 17.8592 31.8866 15.5419 30.0017 13.3714Z" fill="white"/>
</svg>
