<svg width="232" height="232" viewBox="0 0 232 232" fill="none" xmlns="http://www.w3.org/2000/svg">
<circle cx="4" cy="68" r="4" fill="#1E1D1D" fill-opacity="0.15"/>
<circle cx="4" cy="100" r="4" fill="#1E1D1D" fill-opacity="0.05"/>
<circle cx="4" cy="132" r="4" fill="#1E1D1D" fill-opacity="0.05"/>
<circle cx="36" cy="68" r="4" fill="#1E1D1D" fill-opacity="0.15"/>
<circle cx="36" cy="100" r="4" fill="#1E1D1D" fill-opacity="0.05"/>
<circle cx="36" cy="132" r="4" fill="#1E1D1D" fill-opacity="0.05"/>
<circle cx="68" cy="4" r="4" fill="#1E1D1D" fill-opacity="0.15"/>
<circle cx="68" cy="36" r="4" fill="#1E1D1D" fill-opacity="0.15"/>
<circle cx="68" cy="68" r="4" fill="#1E1D1D" fill-opacity="0.15"/>
<circle cx="68" cy="100" r="4" fill="#1E1D1D" fill-opacity="0.05"/>
<circle cx="68" cy="132" r="4" fill="#1E1D1D" fill-opacity="0.05"/>
<circle cx="68" cy="164" r="4" fill="#1E1D1D" fill-opacity="0.15"/>
<circle cx="68" cy="196" r="4" fill="#1E1D1D" fill-opacity="0.15"/>
<circle cx="68" cy="228" r="4" fill="#1E1D1D" fill-opacity="0.15"/>
<circle cx="100" cy="4" r="4" fill="#1E1D1D" fill-opacity="0.15"/>
<circle cx="100" cy="36" r="4" fill="#1E1D1D" fill-opacity="0.15"/>
<circle cx="100" cy="68" r="4" fill="#1E1D1D" fill-opacity="0.15"/>
<circle cx="100" cy="100" r="4" fill="#1E1D1D" fill-opacity="0.05"/>
<circle cx="100" cy="132" r="4" fill="#1E1D1D" fill-opacity="0.05"/>
<circle cx="100" cy="164" r="4" fill="#1E1D1D" fill-opacity="0.15"/>
<circle cx="100" cy="196" r="4" fill="#1E1D1D" fill-opacity="0.15"/>
<circle cx="100" cy="228" r="4" fill="#1E1D1D" fill-opacity="0.15"/>
<circle cx="132" cy="4" r="4" fill="#1E1D1D" fill-opacity="0.05"/>
<circle cx="132" cy="36" r="4" fill="#1E1D1D" fill-opacity="0.05"/>
<circle cx="132" cy="68" r="4" fill="#1E1D1D" fill-opacity="0.05"/>
<circle cx="164" cy="4" r="4" fill="#1E1D1D" fill-opacity="0.05"/>
<circle cx="164" cy="36" r="4" fill="#1E1D1D" fill-opacity="0.05"/>
<circle cx="164" cy="68" r="4" fill="#1E1D1D" fill-opacity="0.05"/>
<circle cx="196" cy="4" r="4" fill="#1E1D1D" fill-opacity="0.15"/>
<circle cx="228" cy="4" r="4" fill="#1E1D1D" fill-opacity="0.15"/>
</svg>
