<svg width="32" height="40" viewBox="0 0 32 40" fill="none" xmlns="http://www.w3.org/2000/svg">
<path d="M15.9999 19.5627C20.6782 19.5627 24.4712 15.1834 24.4712 9.78139C24.4712 4.3793 23.2257 0 15.9999 0C8.77378 0 7.52854 4.3793 7.52854 9.78139C7.52867 15.1834 11.3215 19.5627 15.9999 19.5627Z" fill="url(#paint0_linear)"/>
<path d="M31.9819 34.1026C31.8252 24.692 30.5323 22.0106 20.639 20.3131C20.639 20.3131 19.2461 22 16.0001 22C12.7542 22 11.3615 20.3131 11.3615 20.3131C1.57612 21.9919 0.204395 24.6337 0.0240993 33.7968C0.00943592 34.5451 0.00267765 34.5843 0 34.4974C0.000510029 34.6602 0.00127535 34.9612 0.00127535 35.4862C0.00127535 35.4862 2.35672 40 16.0003 40C29.6438 40 31.9995 35.4862 31.9995 35.4862C31.9995 35.1489 31.9997 34.9143 32 34.7549C31.9973 34.8086 31.9918 34.7045 31.9819 34.1026Z" fill="url(#paint1_linear)"/>
<defs>
<linearGradient id="paint0_linear" x1="29.6965" y1="-29.4444" x2="-1.31509" y2="-23.9457" gradientUnits="userSpaceOnUse">
<stop stop-color="#F96918"/>
<stop offset="1" stop-color="#FFB800"/>
</linearGradient>
<linearGradient id="paint1_linear" x1="29.6965" y1="-29.4444" x2="-1.31509" y2="-23.9457" gradientUnits="userSpaceOnUse">
<stop stop-color="#F96918"/>
<stop offset="1" stop-color="#FFB800"/>
</linearGradient>
</defs>
</svg>
