<svg width="158" height="232" viewBox="0 0 158 232" fill="none" xmlns="http://www.w3.org/2000/svg">
<circle cx="26" cy="100" r="4" fill="#1E1D1D" fill-opacity="0.05"/>
<circle cx="26" cy="132" r="4" fill="#1E1D1D" fill-opacity="0.05"/>
<circle cx="26" cy="164" r="4" fill="#1E1D1D" fill-opacity="0.15"/>
<circle cx="26" cy="196" r="4" fill="#1E1D1D" fill-opacity="0.05"/>
<circle cx="26" cy="228" r="4" fill="#1E1D1D" fill-opacity="0.05"/>
<circle cx="58" cy="100" r="4" fill="#1E1D1D" fill-opacity="0.15"/>
<circle cx="58" cy="132" r="4" fill="#1E1D1D" fill-opacity="0.15"/>
<circle cx="58" cy="164" r="4" fill="#1E1D1D" fill-opacity="0.15"/>
<circle cx="58" cy="196" r="4" fill="#1E1D1D" fill-opacity="0.05"/>
<circle cx="58" cy="228" r="4" fill="#1E1D1D" fill-opacity="0.05"/>
<circle cx="90" cy="4" r="4" fill="#1E1D1D" fill-opacity="0.05"/>
<circle cx="90" cy="36" r="4" fill="#1E1D1D" fill-opacity="0.05"/>
<circle cx="90" cy="68" r="4" fill="#1E1D1D" fill-opacity="0.15"/>
<circle cx="90" cy="100" r="4" fill="#1E1D1D" fill-opacity="0.15"/>
<circle cx="90" cy="132" r="4" fill="#1E1D1D" fill-opacity="0.15"/>
<circle cx="122" cy="4" r="4" fill="#1E1D1D" fill-opacity="0.05"/>
<circle cx="122" cy="36" r="4" fill="#1E1D1D" fill-opacity="0.05"/>
<circle cx="122" cy="68" r="4" fill="#1E1D1D" fill-opacity="0.15"/>
<circle cx="122" cy="100" r="4" fill="#1E1D1D" fill-opacity="0.15"/>
<circle cx="122" cy="132" r="4" fill="#1E1D1D" fill-opacity="0.15"/>
<circle cx="154" cy="4" r="4" fill="#1E1D1D" fill-opacity="0.15"/>
<circle cx="154" cy="36" r="4" fill="#1E1D1D" fill-opacity="0.15"/>
<circle cx="154" cy="68" r="4" fill="#1E1D1D" fill-opacity="0.15"/>
<circle cx="154" cy="100" r="4" fill="#1E1D1D" fill-opacity="0.15"/>
<circle cx="154" cy="132" r="4" fill="#1E1D1D" fill-opacity="0.15"/>
</svg>
