<svg width="70" height="26" viewBox="0 0 70 26" fill="none" xmlns="http://www.w3.org/2000/svg">
<path d="M18.2964 22.8648C18.3091 22.9796 18.273 23.0832 18.188 23.1757C18.0997 23.2542 17.9955 23.2996 17.8755 23.3117L17.8034 23.394C17.667 23.5274 17.5114 23.6136 17.3365 23.6527C16.4769 23.845 15.7988 23.1149 15.3024 21.4623C14.8171 19.7926 14.5643 18.9159 14.5438 18.8323C13.9928 16.9568 13.6071 15.5367 13.3865 14.5719C13.3208 14.3662 13.2351 14.0473 13.1294 13.6154L13.063 13.3436C12.6249 13.5004 11.9503 13.6954 11.0391 13.9286C10.8934 13.9612 10.7057 14.0106 10.476 14.0767C10.2574 14.1256 9.99856 14.1982 9.69939 14.2945C9.81715 14.6502 9.90935 14.9015 9.97598 15.0483C10.8273 17.2093 11.5066 19.2325 12.0138 21.1178C12.2252 21.9817 12.3373 22.6915 12.3502 23.247C12.3592 23.5978 12.3069 23.9181 12.1934 24.208C12.0799 24.4979 11.8668 24.6632 11.554 24.7038C11.5248 24.7103 11.5013 24.7082 11.4833 24.6976C11.4789 24.7426 11.4399 24.8028 11.3661 24.8781C11.1131 25.0376 10.8773 25.1417 10.6587 25.1906C10.4839 25.2297 10.3314 25.2345 10.2012 25.2048C10.0093 25.1742 9.86544 25.0888 9.76966 24.9486C9.67389 24.8084 9.55937 24.5915 9.4261 24.298C8.99562 23.292 8.43733 21.7635 7.75123 19.7125C7.32544 18.4115 6.95418 17.3335 6.63746 16.4785C6.31733 15.6095 5.94791 14.7589 5.52919 13.9267C5.51121 13.916 5.50222 13.9107 5.50222 13.9107C5.51338 13.8935 5.52625 13.8832 5.54082 13.88C5.43329 13.566 5.43627 13.2641 5.54977 12.9741C5.65986 12.6703 5.87225 12.439 6.18693 12.2805C6.32582 12.22 6.42441 12.1833 6.48269 12.1702C6.80325 12.0985 7.12023 12.1378 7.43363 12.2882C7.51517 12.1818 7.64555 12.0865 7.82474 12.0023C8.1205 11.892 8.42138 11.8027 8.72737 11.7342C8.98964 11.6756 9.37189 11.6047 9.87412 11.5218L10.3819 11.4302C11.4233 11.2267 12.2113 11.0871 12.7461 11.0116C12.8335 10.992 12.9737 10.9681 13.1665 10.9396C13.3705 10.894 13.5577 10.8741 13.7282 10.8801C13.8953 10.8721 14.0457 10.8899 14.1793 10.9335C14.7453 11.1743 15.0696 11.5574 15.152 12.0827L15.1673 12.1454C15.2321 12.4102 15.2888 12.6106 15.3374 12.7467C15.2891 12.3607 15.2312 11.7784 15.1637 10.9999C15.1613 10.9269 15.1892 10.884 15.2474 10.8709C15.3057 10.8579 15.3434 10.8862 15.3604 10.9559C15.6725 12.1059 16.1328 13.8621 16.7413 16.2244L18.0953 21.4769C18.1984 21.8359 18.2655 22.2986 18.2964 22.8648ZM10.132 24.0739C10.0713 24.014 10.0341 23.9562 10.0204 23.9005C9.9256 23.7012 9.85262 23.4971 9.80149 23.2881C9.75378 23.093 9.7107 22.9483 9.67227 22.8541C9.55451 22.4983 9.45891 22.2331 9.38546 22.0585C9.36501 21.9749 9.31635 21.8388 9.2395 21.6502C9.06192 21.1755 8.73016 20.3533 8.24421 19.1833L8.03409 18.7013C7.55402 17.6182 7.18412 16.7971 6.92441 16.2379C6.66128 15.6648 6.35103 15.0876 5.99366 14.5062C5.97569 14.4955 5.95771 14.4848 5.93973 14.4741C5.91834 14.4495 5.89525 14.418 5.87045 14.3794C6.3115 15.1773 6.71394 16.0058 7.07778 16.865C7.43822 17.7103 7.83614 18.7088 8.27156 19.8606C8.62918 20.8829 9.01765 21.9056 9.43697 22.9287C9.69481 23.6059 9.89548 24.1121 10.039 24.4475C10.1654 24.7131 10.3452 24.8199 10.5783 24.7677C10.6658 24.7482 10.7901 24.6909 10.9513 24.5961C10.8434 24.532 10.7348 24.402 10.6254 24.2061C10.4214 24.2517 10.2569 24.2076 10.132 24.0739Z" fill="url(#paint0_linear_1020_29)"/>
<path d="M26.4158 20.7179C26.1331 20.6929 25.3085 19.3636 23.942 16.73L22.3079 17.1175C22.2888 18.5474 22.3724 19.8 22.5585 20.8753C22.5722 20.931 22.5605 20.9777 22.5236 21.0154C22.5013 21.0498 22.4683 21.0718 22.4246 21.0816C22.3809 21.0914 22.3338 21.0872 22.2832 21.0691C22.2473 21.0478 22.2225 21.0093 22.2088 20.9535C21.9991 19.5308 21.9374 18.2733 22.0238 17.1811L21.8271 17.2251C21.8202 17.888 21.856 18.9455 21.9345 20.3976L22.0451 21.3208C22.0968 21.7208 22.0261 22.0599 21.8329 22.3383C21.6509 22.5994 21.3996 22.7659 21.0791 22.8376C20.7439 22.9125 20.4163 22.8609 20.0961 22.6827C19.7904 22.5012 19.5882 22.2085 19.4893 21.8044C19.4621 21.6929 19.4489 21.6077 19.4498 21.5487C19.3223 20.2104 19.2674 18.9808 19.2852 17.8598C19.0298 17.9464 18.8437 18.0027 18.7272 18.0288C18.7427 17.9665 18.7363 17.9091 18.7081 17.8567C18.4142 17.8489 18.1616 17.7585 17.9502 17.5853C17.7388 17.4122 17.6007 17.1932 17.5359 16.9284C17.4371 16.5244 17.5216 16.116 17.7895 15.7033C18.0574 15.2907 18.5146 14.9606 19.161 14.7131C19.1144 13.0775 19.1925 11.7006 19.3954 10.5823C19.4153 10.475 19.4649 10.2067 19.5443 9.77746C19.6237 9.34818 19.7656 8.98577 19.9699 8.69021C20.1709 8.38072 20.4316 8.19013 20.7522 8.11842C20.9382 8.06211 21.1322 8.07014 21.3344 8.1425C21.5476 8.19767 21.7112 8.30071 21.8249 8.45162C22.1377 8.41104 22.42 8.46548 22.6717 8.61493C22.9346 8.74718 23.1125 8.97192 23.2054 9.28915C23.3923 9.86461 23.6684 10.6479 24.0338 11.639L24.0826 11.6502C23.9243 10.8773 23.8083 10.1831 23.7346 9.5676L24.02 10.4517C24.4191 11.8321 24.7476 12.8609 25.0054 13.538C25.4708 13.4927 25.8541 13.5833 26.1554 13.8099C26.4678 14.0192 26.6684 14.305 26.757 14.6673C26.8183 14.9181 26.8107 15.1697 26.7341 15.422C26.6721 15.671 26.5415 15.8913 26.3425 16.0828L26.5322 16.4812C27.2782 17.9604 27.8044 19.1066 28.1109 19.9198C28.1459 20.0002 28.1822 20.117 28.2197 20.2703C28.3049 20.6186 28.2968 20.8997 28.1954 21.1134C28.1086 21.3239 27.9559 21.4536 27.7373 21.5025C27.5333 21.5481 27.3072 21.5032 27.0589 21.3676C26.8106 21.2321 26.5962 21.0155 26.4158 20.7179ZM21.9748 14.4364C22.1574 14.3662 22.4347 14.2747 22.8068 14.1621C22.6778 13.8235 22.4956 13.2985 22.2601 12.5869C22.1842 12.3394 22.0647 11.9766 21.9017 11.4987C21.8679 11.8002 21.8553 12.2513 21.8639 12.8519C21.8871 13.4493 21.924 13.9775 21.9748 14.4364Z" fill="url(#paint1_linear_1020_29)"/>
<path d="M41.1443 17.2247C41.18 17.496 41.1491 17.8409 41.0517 18.2595C41.0051 18.4463 40.9064 18.608 40.7554 18.7447C40.619 18.8781 40.4488 18.9676 40.2448 19.0132C40.0408 19.0589 39.8321 19.0541 39.6189 18.9989C39.4056 18.9438 39.2275 18.844 39.0846 18.6996C39.0418 18.6504 38.958 18.5589 38.8331 18.4252C38.7227 18.2882 38.6359 18.1533 38.5727 18.0205C38.5129 17.9016 38.4309 17.6921 38.3268 17.3921C36.6344 18.1381 35.1887 18.8877 33.9898 19.6409C33.898 19.7055 33.7072 19.8363 33.4173 20.0335C33.124 20.2167 32.8389 20.3392 32.5621 20.4011C32.2853 20.4631 32.0368 20.4525 31.8167 20.3695C31.6078 20.2692 31.4639 20.1838 31.3852 20.1133L31.029 20.2591C30.9887 20.2828 30.9248 20.3044 30.8374 20.324C30.5751 20.3827 30.3288 20.3496 30.0985 20.2248C29.8682 20.0999 29.724 19.9191 29.6661 19.6822C29.6354 19.5568 29.6356 19.4318 29.6666 19.3073C29.635 19.2409 29.6038 19.145 29.5732 19.0196C29.466 18.4557 29.3929 18.0311 29.3538 17.7459C29.2875 17.3492 29.1769 16.7714 29.022 16.0124L28.8533 15.3227C28.6488 14.4866 28.4339 13.7337 28.2086 13.064C28.1395 12.8443 27.9846 12.4307 27.7438 11.8232C27.4704 11.2083 27.2581 10.7488 27.1069 10.4446C26.8044 9.83618 26.5629 9.38315 26.3826 9.08548C26.3578 9.04693 26.2834 8.9313 26.1594 8.73858C26.0466 8.52867 25.968 8.33314 25.9237 8.152C25.8692 7.92905 25.8746 7.70003 25.9401 7.46494C25.9978 7.26098 26.1167 7.08741 26.2968 6.94424C26.4915 6.7978 26.7054 6.69851 26.9386 6.64636C27.2591 6.57465 27.5649 6.63116 27.856 6.8159C28.1617 6.99737 28.352 7.24138 28.427 7.54794C28.4508 7.64548 28.4606 7.71678 28.4562 7.76184C28.5734 7.92669 28.6371 8.03002 28.6473 8.07182C29.4293 9.57233 30.0879 11.071 30.6231 12.568C31.1548 14.051 31.6398 15.6252 32.0779 17.2908C32.1877 17.2369 32.2447 17.1874 32.2491 17.1423C32.2534 17.0973 32.2386 17.0051 32.2045 16.8657L32.0767 16.3432L31.7722 15.287C31.6632 14.8411 31.5305 14.3931 31.3743 13.9431C30.894 12.4192 30.274 10.8898 29.5144 9.35488C29.4546 9.23599 29.3593 9.06625 29.2285 8.84566C29.0977 8.62508 29.0118 8.43118 28.9709 8.26397C28.9719 8.20497 28.9891 8.14968 29.0226 8.0981C29.0672 8.02933 29.1187 7.98842 29.177 7.97538C29.2498 7.95908 29.3166 7.98088 29.3774 8.04078C29.5271 8.21304 29.6596 8.44059 29.7749 8.72344C29.9013 8.98909 29.9838 9.16905 30.0222 9.26333L30.5475 10.4685C30.9489 11.481 31.2412 12.268 31.4247 12.8295C31.8052 14.0083 32.0688 14.8973 32.2154 15.4965C32.3346 15.9842 32.4372 16.4977 32.523 17.037C33.2485 16.6101 33.796 16.304 34.1655 16.1184C34.6045 15.9026 34.9428 15.7461 35.1803 15.6489L34.8846 14.723C34.836 14.5869 34.7776 14.3796 34.7094 14.1009C34.6437 13.8951 34.5678 13.6476 34.4816 13.3582C34.3921 13.0549 34.2777 12.7131 34.1386 12.3327C33.8997 11.6072 33.6017 10.8288 33.2447 9.99746L32.6975 8.79715L32.4539 8.36665C32.2419 8.00256 32.1103 7.71601 32.0592 7.507C31.9808 7.18651 32.0438 6.87849 32.2481 6.58293C32.4524 6.28738 32.7222 6.10212 33.0573 6.02715C33.3487 5.96196 33.6259 5.99549 33.8887 6.12775C34.1628 6.24281 34.3759 6.42294 34.528 6.66813C34.6272 6.82231 34.7114 7.00924 34.7805 7.22893C34.8496 7.44862 34.891 7.58633 34.9046 7.64207C34.9557 7.85108 35.0005 8.00273 35.0389 8.09701C35.1226 8.31344 35.2335 8.64135 35.3717 9.08073C35.4077 9.10208 35.4308 9.13365 35.441 9.17546L35.4936 9.29598C35.5373 9.2862 35.5917 9.28872 35.6568 9.30356C35.2508 7.89529 34.9537 6.83747 34.7653 6.13007C34.7516 6.07434 34.774 6.03995 34.8323 6.02691C34.8905 6.01387 34.9265 6.03522 34.9401 6.09096C36.08 9.05457 37.0534 11.8717 37.8603 14.5424L38.03 14.4824L38.156 14.4321C38.3275 14.3791 38.5812 14.2856 38.9173 14.1516C39.2714 14.0283 39.6063 14.0783 39.9222 14.3016C40.2381 14.5249 40.4605 14.8058 40.5894 15.1444C40.7456 15.5944 40.8816 16.0563 40.9975 16.5301C41.0725 16.8367 41.1214 17.0682 41.1443 17.2247ZM31.7916 19.8901C31.9938 19.9624 32.1805 19.9721 32.352 19.9191C32.5346 19.8488 32.7271 19.7249 32.9296 19.5474C33.1466 19.3665 33.3139 19.2336 33.4314 19.1485C33.512 19.1011 33.5909 19.0467 33.6681 18.9853C33.7599 18.9207 33.8516 18.8561 33.9434 18.7915L33.0766 19.2058L31.7916 19.8901Z" fill="url(#paint2_linear_1020_29)"/>
<path d="M48.4642 15.7857C48.1815 15.7608 47.3569 14.4315 45.9904 11.7978L44.3563 12.1854C44.3372 13.6152 44.4207 14.8678 44.6069 15.9431C44.6206 15.9989 44.6089 16.0456 44.572 16.0832C44.5497 16.1176 44.5167 16.1397 44.473 16.1495C44.4293 16.1592 44.3821 16.1551 44.3316 16.137C44.2956 16.1156 44.2709 16.0771 44.2572 16.0214C44.0475 14.5986 43.9858 13.3411 44.0721 12.2489L43.8754 12.293C43.8685 12.9559 43.9044 14.0134 43.9829 15.4655L44.0935 16.3887C44.1452 16.7886 44.0745 17.1278 43.8813 17.4061C43.6993 17.6673 43.448 17.8337 43.1275 17.9054C42.7923 17.9804 42.4647 17.9288 42.1444 17.7506C41.8388 17.5691 41.6365 17.2763 41.5377 16.8722C41.5104 16.7607 41.4973 16.6755 41.4982 16.6165C41.3707 15.2782 41.3158 14.0486 41.3336 12.9277C41.0781 13.0142 40.8921 13.0705 40.7756 13.0966C40.7911 13.0344 40.7847 12.977 40.7565 12.9245C40.4626 12.9168 40.21 12.8263 39.9986 12.6532C39.7872 12.48 39.6491 12.261 39.5843 11.9963C39.4855 11.5922 39.57 11.1838 39.8379 10.7712C40.1058 10.3585 40.563 10.0285 41.2094 9.78098C41.1628 8.14537 41.2409 6.76844 41.4438 5.65019C41.4636 5.54287 41.5133 5.27457 41.5927 4.8453C41.6721 4.41602 41.814 4.05361 42.0183 3.75805C42.2192 3.44857 42.48 3.25797 42.8005 3.18626C42.9866 3.12995 43.1806 3.13798 43.3827 3.21034C43.596 3.26551 43.7595 3.36855 43.8733 3.51946C44.1861 3.47888 44.4684 3.53332 44.7201 3.68277C44.9829 3.81502 45.1609 4.03976 45.2538 4.35699C45.4407 4.93246 45.7168 5.71575 46.0822 6.70688L46.131 6.71801C45.9727 5.9451 45.8567 5.25091 45.783 4.63544L46.0684 5.51953C46.4675 6.89993 46.796 7.92871 47.0538 8.60586C47.5191 8.56056 47.9025 8.65117 48.2038 8.87771C48.5162 9.08705 48.7168 9.37287 48.8054 9.73516C48.8667 9.98598 48.8591 10.2375 48.7825 10.4898C48.7205 10.7388 48.5899 10.9591 48.3909 11.1506L48.5805 11.5491C49.3266 13.0282 49.8528 14.1744 50.1593 14.9877C50.1943 15.068 50.2306 15.1848 50.2681 15.3381C50.3533 15.6865 50.3452 15.9675 50.2438 16.1813C50.157 16.3917 50.0043 16.5214 49.7857 16.5703C49.5817 16.6159 49.3556 16.571 49.1073 16.4355C48.859 16.3 48.6446 16.0834 48.4642 15.7857ZM44.0232 9.50426C44.2058 9.43401 44.4831 9.34258 44.8551 9.22997C44.7262 8.89139 44.544 8.36633 44.3085 7.65478C44.2326 7.40722 44.1131 7.04448 43.9501 6.56656C43.9163 6.86806 43.9037 7.31913 43.9123 7.91978C43.9354 8.51716 43.9724 9.04532 44.0232 9.50426Z" fill="url(#paint3_linear_1020_29)"/>
<path d="M61.6886 6.89731C61.7174 7.14071 61.6396 7.35653 61.4551 7.54476C61.2852 7.72974 61.073 7.836 60.8185 7.86354C60.9665 8.59464 61.1605 9.63882 61.4003 10.9961C61.5022 11.664 61.5756 12.184 61.6205 12.5561C61.6508 12.9314 61.6585 13.2457 61.6436 13.4989C61.6287 13.7521 61.5329 13.9572 61.3562 14.1143C61.3596 14.1282 61.354 14.1368 61.3394 14.1401C61.3016 14.2367 61.2256 14.3346 61.1115 14.4336C61.0008 14.5465 60.8726 14.6193 60.7269 14.6519C60.4938 14.704 60.2642 14.6452 60.0383 14.4753C59.8551 14.3546 59.6995 14.0954 59.5715 13.6979C59.2975 12.892 59.0561 12.0936 58.8473 11.3026C58.6093 10.5181 58.3915 9.72181 58.1938 8.91362L58.0046 8.14026L57.5675 8.23805C56.7224 8.4271 55.8897 8.63542 55.0694 8.86301C55.3507 9.88763 55.5562 10.6647 55.6857 11.1942C55.8561 11.8909 55.9458 12.4146 55.9547 12.7654L55.9701 12.8281L56.0542 13.3604C56.1176 13.934 56.0841 14.331 55.9536 14.5513C55.7595 14.8886 55.4875 15.0964 55.1378 15.1746C54.7736 15.2561 54.4468 15.1455 54.1576 14.8428C54.0969 14.7829 54.0203 14.6898 53.928 14.5635C53.8551 14.5798 53.7844 14.5736 53.7159 14.5448C53.6474 14.516 53.6046 14.4668 53.5876 14.3971C53.3487 13.6716 53.0194 12.5769 52.5998 11.1129C52.5249 10.8064 52.4012 10.3637 52.2289 9.78499L52.0308 9.91749C51.9245 9.98537 51.8276 10.0291 51.7402 10.0486C51.507 10.1008 51.2826 10.0628 51.0668 9.93472C50.8657 9.80336 50.7378 9.62621 50.6833 9.40326C50.6424 9.23605 50.6615 9.06277 50.7405 8.88341C50.7861 8.75564 50.8737 8.61112 51.0033 8.44986C51.1023 8.16319 51.3202 7.92337 51.6572 7.73041C51.3486 6.59431 51.1115 5.75084 50.9461 5.19999C50.8949 4.99097 50.8003 4.66677 50.6621 4.22739C50.4148 3.34212 50.2456 2.68186 50.1545 2.24664C50.1477 2.21877 50.1516 2.20321 50.1662 2.19995C50.1953 2.19343 50.2133 2.20411 50.2201 2.23197C50.4277 2.64112 50.6165 3.09859 50.7863 3.60438C50.9673 4.09298 51.0821 4.40532 51.1308 4.54141L51.365 5.21649C51.6988 6.14121 51.9715 6.91057 52.1832 7.52458C52.2167 7.47299 52.2334 7.4472 52.2334 7.4472L52.2771 7.43742C51.747 5.3956 51.2586 3.80737 50.812 2.67274C50.7181 2.41451 50.7347 2.16829 50.8619 1.9341C51.0036 1.69665 51.2055 1.54858 51.4678 1.48991C51.7009 1.43776 51.9237 1.46877 52.136 1.58293C52.3595 1.6799 52.5041 1.83127 52.5698 2.03702L52.5801 2.07882C52.6529 2.06253 52.7382 2.0655 52.8358 2.08775C52.948 2.10673 53.043 2.18101 53.1208 2.31058C53.2098 2.42295 53.2786 2.54717 53.3273 2.68326L53.6382 3.67186L54.5354 6.49136L54.5791 6.48158C55.072 6.29783 55.8182 6.05007 56.8177 5.7383L57.4967 5.49824L56.7097 2.94068C56.6781 2.87427 56.6256 2.75375 56.5521 2.57912C56.4753 2.39056 56.4198 2.22661 56.3857 2.08727C56.2562 1.55776 56.3575 1.1236 56.6896 0.784774C56.9512 0.53518 57.2351 0.376158 57.5411 0.30771C58.0219 0.200148 58.4339 0.313742 58.777 0.648492C58.9773 0.838846 59.135 1.07544 59.2503 1.35829C59.3656 1.64113 59.4727 1.9846 59.5715 2.38869L59.711 2.86454C59.7357 2.90308 59.7443 2.93792 59.7365 2.96905C59.7433 2.99692 59.7501 3.02478 59.757 3.05265C59.809 3.20267 59.876 3.44489 59.9578 3.77932C60.0396 4.11374 60.0936 4.36619 60.12 4.53666L60.2324 4.99649C60.3378 4.98761 60.4377 4.98732 60.5319 4.99564C60.6407 5.00069 60.7332 5.00203 60.8095 4.99967C61.0777 5.02787 61.2939 5.12647 61.4582 5.29547C61.6336 5.44728 61.7503 5.64163 61.8083 5.87851C61.8901 6.21294 61.8451 6.53163 61.6733 6.8346L61.6886 6.89731ZM54.9867 8.2422C54.9712 8.30445 54.9505 8.34581 54.9248 8.36626L54.9453 8.44987C55.7699 8.17721 56.6048 7.94636 57.4499 7.75731C57.5553 7.74843 57.7027 7.7228 57.8921 7.68043L57.8666 7.57592C57.5863 7.62392 57.1693 7.70985 56.6157 7.83371C56.2077 7.92497 55.9034 8.00039 55.7028 8.05995L54.9867 8.2422Z" fill="url(#paint4_linear_1020_29)"/>
<path d="M0.517517 16.9055H3.45608C3.66795 16.9055 3.8584 17.0277 3.93673 17.2139L4.18161 17.7961C4.33277 18.1554 4.00422 18.5308 3.60277 18.4574L0.419326 17.8752C-0.196106 17.7627 -0.10931 16.9055 0.517517 16.9055Z" fill="url(#paint5_linear_1020_29)"/>
<path d="M0.533135 20.0045H2.73554C3.25463 20.0045 3.45028 20.647 3.01075 20.9082L1.90955 21.5627C1.7413 21.6627 1.52738 21.6627 1.35913 21.5627L0.257929 20.9082C-0.181597 20.647 0.0140524 20.0045 0.533135 20.0045Z" fill="url(#paint6_linear_1020_29)"/>
<path d="M1.78726 25.1707C2.95127 24.2327 4.39787 23.1503 5.37087 22.6576C5.66781 22.5073 5.97964 22.7238 5.97964 23.0424V25.0858C5.97964 25.331 5.78791 25.5383 5.53107 25.5708L2.18459 25.9951C1.68238 26.0588 1.40153 25.4815 1.78726 25.1707Z" fill="url(#paint7_linear_1020_29)"/>
<path d="M65.9338 0.0828047L63.4573 1.57913C63.2788 1.68701 63.1878 1.88698 63.2278 2.0838L63.3527 2.6991C63.4298 3.07893 63.9203 3.22797 64.2169 2.96169L66.5684 0.850058C67.023 0.441832 66.462 -0.236378 65.9338 0.0828047Z" fill="url(#paint8_linear_1020_29)"/>
<path d="M67.6842 2.70247L65.8282 3.82394C65.3907 4.08826 65.5914 4.72929 66.1105 4.72562L67.411 4.71645C67.6097 4.71504 67.79 4.60611 67.8749 4.43617L68.4304 3.32388C68.6522 2.87993 68.1217 2.43815 67.6842 2.70247Z" fill="url(#paint9_linear_1020_29)"/>
<path d="M69.5673 7.69479C68.0526 7.49709 66.2175 7.32146 65.1171 7.40175C64.7813 7.42625 64.6418 7.76752 64.8231 8.03601L65.9859 9.75809C66.1254 9.96467 66.405 10.0417 66.64 9.9384L69.7017 8.59194C70.1612 8.38987 70.0693 7.76031 69.5673 7.69479Z" fill="url(#paint10_linear_1020_29)"/>
<path d="M1.66143 23.6177L5.72099 21.7987L3.16286 24.8785C2.9996 25.075 2.706 25.1236 2.48193 24.9911L1.60871 24.4749C1.26195 24.2699 1.29188 23.7833 1.66143 23.6177Z" fill="url(#paint11_linear_1020_29)"/>
<defs>
<linearGradient id="paint0_linear_1020_29" x1="49.8532" y1="-6.16817" x2="43.892" y2="24.1156" gradientUnits="userSpaceOnUse">
<stop stop-color="#F96918"/>
<stop offset="1" stop-color="#FFB800"/>
</linearGradient>
<linearGradient id="paint1_linear_1020_29" x1="49.8532" y1="-6.16817" x2="43.892" y2="24.1156" gradientUnits="userSpaceOnUse">
<stop stop-color="#F96918"/>
<stop offset="1" stop-color="#FFB800"/>
</linearGradient>
<linearGradient id="paint2_linear_1020_29" x1="49.8532" y1="-6.16817" x2="43.892" y2="24.1156" gradientUnits="userSpaceOnUse">
<stop stop-color="#F96918"/>
<stop offset="1" stop-color="#FFB800"/>
</linearGradient>
<linearGradient id="paint3_linear_1020_29" x1="49.8532" y1="-6.16817" x2="43.892" y2="24.1156" gradientUnits="userSpaceOnUse">
<stop stop-color="#F96918"/>
<stop offset="1" stop-color="#FFB800"/>
</linearGradient>
<linearGradient id="paint4_linear_1020_29" x1="49.8532" y1="-6.16817" x2="43.892" y2="24.1156" gradientUnits="userSpaceOnUse">
<stop stop-color="#F96918"/>
<stop offset="1" stop-color="#FFB800"/>
</linearGradient>
<linearGradient id="paint5_linear_1020_29" x1="49.8532" y1="-6.16817" x2="43.892" y2="24.1156" gradientUnits="userSpaceOnUse">
<stop stop-color="#F96918"/>
<stop offset="1" stop-color="#FFB800"/>
</linearGradient>
<linearGradient id="paint6_linear_1020_29" x1="49.8532" y1="-6.16817" x2="43.892" y2="24.1156" gradientUnits="userSpaceOnUse">
<stop stop-color="#F96918"/>
<stop offset="1" stop-color="#FFB800"/>
</linearGradient>
<linearGradient id="paint7_linear_1020_29" x1="49.8532" y1="-6.16817" x2="43.892" y2="24.1156" gradientUnits="userSpaceOnUse">
<stop stop-color="#F96918"/>
<stop offset="1" stop-color="#FFB800"/>
</linearGradient>
<linearGradient id="paint8_linear_1020_29" x1="49.8532" y1="-6.16817" x2="43.892" y2="24.1156" gradientUnits="userSpaceOnUse">
<stop stop-color="#F96918"/>
<stop offset="1" stop-color="#FFB800"/>
</linearGradient>
<linearGradient id="paint9_linear_1020_29" x1="49.8532" y1="-6.16817" x2="43.892" y2="24.1156" gradientUnits="userSpaceOnUse">
<stop stop-color="#F96918"/>
<stop offset="1" stop-color="#FFB800"/>
</linearGradient>
<linearGradient id="paint10_linear_1020_29" x1="49.8532" y1="-6.16817" x2="43.892" y2="24.1156" gradientUnits="userSpaceOnUse">
<stop stop-color="#F96918"/>
<stop offset="1" stop-color="#FFB800"/>
</linearGradient>
<linearGradient id="paint11_linear_1020_29" x1="49.8532" y1="-6.16817" x2="43.892" y2="24.1156" gradientUnits="userSpaceOnUse">
<stop stop-color="#F96918"/>
<stop offset="1" stop-color="#FFB800"/>
</linearGradient>
</defs>
</svg>
