<svg width="232" height="151" viewBox="0 0 232 151" fill="none" xmlns="http://www.w3.org/2000/svg">
<circle cx="228" cy="132" r="4" transform="rotate(-180 228 132)" fill="#1E1D1D" fill-opacity="0.05"/>
<circle cx="228" cy="100" r="4" transform="rotate(-180 228 100)" fill="#1E1D1D" fill-opacity="0.05"/>
<circle cx="196" cy="132" r="4" transform="rotate(-180 196 132)" fill="#1E1D1D" fill-opacity="0.05"/>
<circle cx="196" cy="100" r="4" transform="rotate(-180 196 100)" fill="#1E1D1D" fill-opacity="0.05"/>
<circle cx="164" cy="132" r="4" transform="rotate(-180 164 132)" fill="#1E1D1D" fill-opacity="0.05"/>
<circle cx="164" cy="100" r="4" transform="rotate(-180 164 100)" fill="#1E1D1D" fill-opacity="0.05"/>
<circle cx="164" cy="68" r="4" transform="rotate(-180 164 68)" fill="#1E1D1D" fill-opacity="0.15"/>
<circle cx="164" cy="36" r="4" transform="rotate(-180 164 36)" fill="#1E1D1D" fill-opacity="0.15"/>
<circle cx="164" cy="4" r="4" transform="rotate(-180 164 4)" fill="#1E1D1D" fill-opacity="0.15"/>
<circle cx="132" cy="132" r="4" transform="rotate(-180 132 132)" fill="#1E1D1D" fill-opacity="0.05"/>
<circle cx="132" cy="100" r="4" transform="rotate(-180 132 100)" fill="#1E1D1D" fill-opacity="0.05"/>
<circle cx="132" cy="68" r="4" transform="rotate(-180 132 68)" fill="#1E1D1D" fill-opacity="0.15"/>
<circle cx="132" cy="36" r="4" transform="rotate(-180 132 36)" fill="#1E1D1D" fill-opacity="0.15"/>
<circle cx="132" cy="4" r="4" transform="rotate(-180 132 4)" fill="#1E1D1D" fill-opacity="0.15"/>
</svg>
