<svg width="343" height="259" viewBox="0 0 343 259" fill="none" xmlns="http://www.w3.org/2000/svg">
<circle cx="115" cy="4" r="4" fill="#1E1D1E" fill-opacity="0.15"/>
<circle cx="115" cy="36" r="4" fill="#1E1D1D" fill-opacity="0.05"/>
<circle cx="115" cy="68" r="4" fill="#1E1D1D" fill-opacity="0.05"/>
<circle cx="115" cy="100" r="4" fill="#1E1D1D" fill-opacity="0.05"/>
<circle cx="147" cy="4" r="4" fill="#1E1D1E" fill-opacity="0.15"/>
<circle cx="147" cy="36" r="4" fill="#1E1D1D" fill-opacity="0.05"/>
<circle cx="147" cy="68" r="4" fill="#1E1D1E" fill-opacity="0.15"/>
<circle cx="147" cy="100" r="4" fill="#1E1D1E" fill-opacity="0.15"/>
<circle cx="179" cy="4" r="4" fill="#1E1D1D" fill-opacity="0.05"/>
<circle cx="179" cy="36" r="4" fill="#1E1D1D" fill-opacity="0.05"/>
<circle cx="179" cy="68" r="4" fill="#1E1D1E" fill-opacity="0.15"/>
<circle cx="179" cy="100" r="4" fill="#1E1D1D" fill-opacity="0.05"/>
<circle cx="211" cy="4" r="4" fill="#1E1D1D" fill-opacity="0.05"/>
<circle cx="211" cy="36" r="4" fill="#1E1D1E" fill-opacity="0.15"/>
<circle cx="211" cy="68" r="4" fill="#1E1D1E" fill-opacity="0.15"/>
<circle cx="211" cy="100" r="4" fill="#1E1D1D" fill-opacity="0.05"/>
<circle cx="307" cy="68" r="4" fill="#1E1D1D" fill-opacity="0.05"/>
<circle cx="4" cy="223" r="4" fill="#1E1D1D" fill-opacity="0.05"/>
<circle cx="307" cy="100" r="4" fill="#1E1D1E" fill-opacity="0.15"/>
<circle cx="4" cy="255" r="4" fill="#1E1D1E" fill-opacity="0.15"/>
<circle cx="307" cy="164" r="4" fill="#1E1D1D" fill-opacity="0.05"/>
<circle cx="307" cy="196" r="4" fill="#1E1D1D" fill-opacity="0.05"/>
<circle cx="339" cy="68" r="4" fill="#1E1D1D" fill-opacity="0.05"/>
<circle cx="36" cy="223" r="4" fill="#1E1D1D" fill-opacity="0.05"/>
<circle cx="339" cy="100" r="4" fill="#1E1D1E" fill-opacity="0.15"/>
<circle cx="36" cy="255" r="4" fill="#1E1D1E" fill-opacity="0.15"/>
<circle cx="339" cy="164" r="4" fill="#1E1D1E" fill-opacity="0.15"/>
<circle cx="339" cy="196" r="4" fill="#1E1D1D" fill-opacity="0.05"/>
</svg>
