<svg width="112" height="112" viewBox="0 0 112 112" fill="none" xmlns="http://www.w3.org/2000/svg">
<path fill-rule="evenodd" clip-rule="evenodd" d="M56 112C86.9279 112 112 86.9279 112 56C112 25.0721 86.9279 0 56 0C25.0721 0 0 25.0721 0 56C0 86.9279 25.0721 112 56 112ZM67.5263 26.4803C68.0266 24.6131 66.9185 22.694 65.0514 22.1937C63.1843 21.6934 61.2651 22.8014 60.7648 24.6685L59.8029 28.2585C47.1602 26.506 34.8656 33.6043 30.0619 45.4295L26.472 44.4675C24.6048 43.9672 22.6856 45.0753 22.1853 46.9424C21.685 48.8095 22.7931 50.7287 24.6602 51.229L28.2502 52.1909C26.4977 64.8337 33.596 77.1283 45.4211 81.9319L44.4592 85.5219C43.9589 87.389 45.067 89.3082 46.9341 89.8085C48.8012 90.3088 50.7204 89.2007 51.2207 87.3336L52.1826 83.7436C64.8253 85.4961 77.1199 78.3979 81.9236 66.5727L85.5135 67.5346C87.3807 68.0349 89.2999 66.9269 89.8002 65.0597C90.3005 63.1926 89.1924 61.2734 87.3253 60.7731L83.7353 59.8112C85.4878 47.1685 78.3895 34.8739 66.5644 30.0703L67.5263 26.4803ZM35.7083 50.5659C38.7101 39.3631 50.2252 32.7149 61.428 35.7166C72.6307 38.7184 79.279 50.2335 76.2772 61.4363C73.2754 72.6391 61.7603 79.2873 50.5575 76.2855C39.3548 73.2837 32.7065 61.7687 35.7083 50.5659ZM55.9931 63.001C59.8591 63.001 62.9931 59.867 62.9931 56.001C62.9931 52.135 59.8591 49.001 55.9931 49.001C52.1271 49.001 48.9931 52.135 48.9931 56.001C48.9931 59.867 52.1271 63.001 55.9931 63.001Z" fill="url(#paint0_linear)"/>
<defs>
<linearGradient id="paint0_linear" x1="56" y1="-226.5" x2="56" y2="99" gradientUnits="userSpaceOnUse">
<stop stop-color="#1E1D1D"/>
<stop offset="1" stop-color="#1E1D1D" stop-opacity="0"/>
</linearGradient>
</defs>
</svg>
