<svg width="36" height="36" viewBox="0 0 36 36" fill="none" xmlns="http://www.w3.org/2000/svg">
<path d="M30.1346 8.46699C30.1346 9.90293 28.9706 11.067 27.5346 11.067C26.0987 11.067 24.9346 9.90293 24.9346 8.46699C24.9346 7.03105 26.0987 5.86699 27.5346 5.86699C28.9706 5.86699 30.1346 7.03105 30.1346 8.46699Z" fill="white"/>
<path fill-rule="evenodd" clip-rule="evenodd" d="M18.0013 26.667C22.7878 26.667 26.668 22.7868 26.668 18.0003C26.668 13.2139 22.7878 9.33366 18.0013 9.33366C13.2148 9.33366 9.33464 13.2139 9.33464 18.0003C9.33464 22.7868 13.2148 26.667 18.0013 26.667ZM18.0013 23.2003C20.8732 23.2003 23.2013 20.8722 23.2013 18.0003C23.2013 15.1284 20.8732 12.8003 18.0013 12.8003C15.1294 12.8003 12.8013 15.1284 12.8013 18.0003C12.8013 20.8722 15.1294 23.2003 18.0013 23.2003Z" fill="white"/>
<path fill-rule="evenodd" clip-rule="evenodd" d="M0.667969 17.307C0.667969 11.4824 0.667969 8.57017 1.8015 6.34549C2.79858 4.38861 4.38958 2.79761 6.34647 1.80052C8.57115 0.666992 11.4834 0.666992 17.308 0.666992H18.6946C24.5192 0.666992 27.4315 0.666992 29.6561 1.80052C31.613 2.79761 33.204 4.38861 34.2011 6.34549C35.3346 8.57017 35.3346 11.4824 35.3346 17.307V18.6937C35.3346 24.5182 35.3346 27.4305 34.2011 29.6552C33.204 31.612 31.613 33.203 29.6561 34.2001C27.4315 35.3337 24.5192 35.3337 18.6946 35.3337H17.308C11.4834 35.3337 8.57115 35.3337 6.34647 34.2001C4.38958 33.203 2.79858 31.612 1.8015 29.6552C0.667969 27.4305 0.667969 24.5182 0.667969 18.6937V17.307ZM17.308 4.13366H18.6946C21.6641 4.13366 23.6827 4.13635 25.243 4.26384C26.7629 4.38801 27.5401 4.61309 28.0823 4.88935C29.3869 5.55407 30.4476 6.61473 31.1123 7.91932C31.3885 8.46151 31.6136 9.23875 31.7378 10.7586C31.8653 12.3189 31.868 14.3375 31.868 17.307V18.6937C31.868 21.6631 31.8653 23.6818 31.7378 25.2421C31.6136 26.7619 31.3885 27.5391 31.1123 28.0813C30.4476 29.3859 29.3869 30.4466 28.0823 31.1113C27.5401 31.3876 26.7629 31.6126 25.243 31.7368C23.6827 31.8643 21.6641 31.867 18.6946 31.867H17.308C14.3385 31.867 12.3199 31.8643 10.7596 31.7368C9.23973 31.6126 8.46249 31.3876 7.9203 31.1113C6.61571 30.4466 5.55505 29.3859 4.89032 28.0813C4.61407 27.5391 4.38899 26.7619 4.26481 25.2421C4.13733 23.6818 4.13464 21.6631 4.13464 18.6937V17.307C4.13464 14.3375 4.13733 12.3189 4.26481 10.7586C4.38899 9.23875 4.61407 8.46151 4.89032 7.91932C5.55505 6.61473 6.61571 5.55407 7.9203 4.88935C8.46249 4.61309 9.23973 4.38801 10.7596 4.26384C12.3199 4.13635 14.3385 4.13366 17.308 4.13366Z" fill="white"/>
</svg>
