<svg width="25" height="27" viewBox="0 0 25 27" fill="none" xmlns="http://www.w3.org/2000/svg">
<path d="M4.45291 17.1261C4.60918 15.8322 5.13985 15.1078 6.13987 14.3652C7.57073 13.3594 9.35808 13.9283 9.35808 13.9283V10.5531C9.7926 10.542 10.2273 10.5678 10.6571 10.6301V14.9736C10.6571 14.9736 8.87028 14.4047 7.43942 15.411C6.43994 16.1531 5.90818 16.8781 5.75245 18.172C5.74757 18.8746 5.87942 19.793 6.4866 20.5871C6.33648 20.5101 6.18347 20.4224 6.02756 20.3239C4.69003 19.4258 4.4464 18.0784 4.45291 17.1261ZM18.0371 4.31248C17.0528 3.23388 16.6806 2.14488 16.546 1.37988H17.7842C17.7842 1.37988 17.5374 3.38574 19.3366 5.35831L19.3616 5.38483C18.8767 5.07979 18.4319 4.71973 18.0371 4.31248ZM24.002 7.3704V11.6265C24.002 11.6265 22.4219 11.5647 21.2526 11.2672C19.6199 10.8511 18.5705 10.213 18.5705 10.213C18.5705 10.213 17.8456 9.75798 17.787 9.72626V18.5152C17.787 19.0046 17.6529 20.2267 17.2443 21.246C16.711 22.5794 15.8878 23.4547 15.7364 23.6336C15.7364 23.6336 14.7353 24.8167 12.9691 25.6134C11.3771 26.3322 9.97937 26.3139 9.56156 26.3322C9.56156 26.3322 7.14533 26.4278 4.9711 25.0149C4.50093 24.7034 4.06206 24.3507 3.66016 23.9612L3.67101 23.969C5.84578 25.382 8.26147 25.2863 8.26147 25.2863C8.67982 25.2681 10.0776 25.2863 11.6691 24.5676C13.4336 23.7709 14.4364 22.5878 14.4364 22.5878C14.5861 22.4089 15.413 21.5336 15.9443 20.1997C16.3518 19.1809 16.4869 17.9582 16.4869 17.4688V8.68094C16.5455 8.71319 17.2698 9.16824 17.2698 9.16824C17.2698 9.16824 18.3198 9.80686 19.9525 10.2224C21.1224 10.5199 22.7019 10.5817 22.7019 10.5817V7.24663C23.2423 7.3678 23.703 7.40057 24.002 7.3704Z" fill="#EE1D52"/>
<path d="M22.7008 7.24663V10.5807C22.7008 10.5807 21.1213 10.5188 19.9514 10.2213C18.3187 9.8053 17.2688 9.16719 17.2688 9.16719C17.2688 9.16719 16.5444 8.71215 16.4858 8.6799V17.4699C16.4858 17.9593 16.3518 19.1819 15.9432 20.2007C15.4098 21.5346 14.5867 22.4099 14.4353 22.5888C14.4353 22.5888 13.4336 23.7719 11.668 24.5686C10.0765 25.2874 8.67877 25.2692 8.26042 25.2874C8.26042 25.2874 5.84472 25.383 3.66995 23.9701L3.6591 23.9623C3.42949 23.7399 3.21336 23.5052 3.01177 23.2591C2.31777 22.413 1.89237 21.4124 1.78547 21.1269C1.78529 21.1257 1.78529 21.1245 1.78547 21.1233C1.61347 20.6271 1.25209 19.4357 1.30147 18.2817C1.38883 16.2457 2.10507 14.996 2.29444 14.6829C2.79597 13.8292 3.44828 13.0653 4.22233 12.4253C4.90538 11.8731 5.67959 11.4337 6.51322 11.1252C7.41439 10.763 8.3794 10.5688 9.35648 10.5531V13.9283C9.35648 13.9283 7.56913 13.3614 6.13882 14.3651C5.13879 15.1078 4.60812 15.8322 4.45185 17.1261C4.44534 18.0783 4.68897 19.4258 6.02541 20.3245C6.18132 20.4233 6.33434 20.511 6.48446 20.5876C6.71794 20.8911 7.00211 21.1556 7.3255 21.3703C8.63102 22.1967 9.72491 22.2544 11.1238 21.7177C12.0565 21.3589 12.7586 20.5502 13.0842 19.6541C13.2888 19.0945 13.2861 18.5313 13.2861 17.9489V1.37988H16.5417C16.6763 2.14488 17.0485 3.23388 18.0328 4.31248C18.4276 4.71973 18.8724 5.07979 19.3573 5.38483C19.5005 5.53305 20.2331 6.26581 21.1734 6.71565C21.6596 6.94818 22.1721 7.12634 22.7008 7.24663Z" fill="white"/>
<path d="M0.488281 20.0908V20.0934L0.569065 20.3124C0.559785 20.2869 0.529765 20.2094 0.488281 20.0908Z" fill="#69C9D0"/>
<path d="M6.51281 11.1256C5.67919 11.4341 4.90497 11.8735 4.22192 12.4258C3.44763 13.0672 2.79548 13.8326 2.29458 14.688C2.10521 15 1.38897 16.2508 1.30161 18.2868C1.25223 19.4408 1.61361 20.6322 1.78561 21.1284C1.78543 21.1296 1.78543 21.1308 1.78561 21.132C1.89413 21.4149 2.31791 22.4155 3.01191 23.2642C3.2135 23.5103 3.42963 23.745 3.65924 23.9674C2.92357 23.4797 2.26746 22.8901 1.71236 22.2179C1.02433 21.379 0.600013 20.3889 0.489321 20.0966C0.489191 20.0945 0.489191 20.0924 0.489321 20.0903V20.0867C0.316772 19.5911 -0.0456897 18.3991 0.00477284 17.2436C0.0921327 15.2075 0.808375 13.9579 0.997745 13.6448C1.4985 12.7893 2.15067 12.0238 2.92509 11.3825C3.608 10.8301 4.38225 10.3907 5.21598 10.0824C5.73602 9.8756 6.27777 9.72304 6.83187 9.62735C7.66692 9.48764 8.51979 9.47553 9.35879 9.59147V10.5536C8.38079 10.5689 7.41484 10.7631 6.51281 11.1256Z" fill="#69C9D0"/>
<path d="M16.5438 1.38034H13.2881V17.9498C13.2881 18.5323 13.2881 19.0939 13.0863 19.6551C12.7575 20.5506 12.058 21.3593 11.1258 21.7181C9.72646 22.2569 8.63256 22.1971 7.32759 21.3708C7.00364 21.157 6.71873 20.8934 6.48438 20.5907C7.59618 21.1591 8.59132 21.1492 9.82413 20.6749C10.7558 20.3161 11.4563 19.5074 11.784 18.6113C11.9891 18.0518 11.9864 17.4885 11.9864 16.9066V0.333984H16.4819C16.4819 0.333984 16.4315 0.745869 16.5438 1.38034ZM22.7002 6.32502V7.24708C22.1724 7.12661 21.6608 6.94845 21.1755 6.71611C20.2351 6.26626 19.5026 5.5335 19.3594 5.38528C19.5256 5.48988 19.6981 5.58504 19.8759 5.67027C21.0192 6.21737 22.1451 6.38067 22.7002 6.32502Z" fill="#69C9D0"/>
</svg>
