<svg width="295" height="313" viewBox="0 0 295 313" fill="none" xmlns="http://www.w3.org/2000/svg">
<path d="M18 263L105.972 273.497L106 273.5C109.211 273.764 110.841 274.694 113.5 277.5L141.5 305C144.981 308.382 149.977 308.855 153.5 305L183 276C184.69 274.502 185.543 273.792 190 273.5L277 263V312.5H18V263Z" fill="white"/>
<path d="M17.864 262.916L9.60387 260.761C7.59696 260.237 5.46292 260.817 3.99633 262.283L3.61396 262.666C1.54289 264.737 1.54289 268.095 3.61396 270.166C5.68503 272.237 9.04289 272.237 11.114 270.166L11.864 269.416M17.864 262.916V248.416M17.864 262.916L45.864 266.263M17.864 248.416C17.864 242.082 16.364 227.916 10.364 221.916C2.86396 214.416 11.364 203.916 13.864 201.416M17.864 248.416V211.416M17.864 211.416V7.02659C17.864 2.55733 12.4604 0.319125 9.30019 3.47937C7.83245 4.94711 7.42023 7.1672 8.26325 9.064L8.86396 10.4156C10.0689 13.1267 9.4797 16.2999 7.38186 18.3977L2.86396 22.9156C0.378679 25.4009 0.37868 29.4303 2.86396 31.9156L4.61396 33.6656C6.13275 35.1844 8.59518 35.1844 10.114 33.6656C11.6327 32.1468 11.6327 29.6844 10.114 28.1656L8.36396 26.4156M17.864 211.416C23.1973 205.749 31.364 190.016 21.364 172.416M45.864 266.263L107.145 273.59C108.907 273.801 110.55 274.592 111.814 275.839L141.745 305.372C144.86 308.445 149.867 308.445 152.983 305.372L182.914 275.839C184.178 274.592 185.821 273.801 187.583 273.59L248.864 266.263M45.864 266.263C53.864 268.314 70.964 273.516 75.364 277.916C80.864 283.416 88.864 283.416 88.864 277.916C88.864 272.416 81.864 273.916 81.864 276.916M276.864 262.916L285.124 260.761C287.131 260.237 289.265 260.817 290.732 262.283L291.114 262.666C293.185 264.737 293.185 268.095 291.114 270.166C289.043 272.237 285.685 272.237 283.614 270.166L282.864 269.416M276.864 262.916V248.416M276.864 262.916L248.864 266.263M276.864 248.416C276.864 242.082 278.364 227.916 284.364 221.916C291.864 214.416 283.364 203.916 280.864 201.416M276.864 248.416V211.416M276.864 211.416V7.02659C276.864 2.55733 282.267 0.319125 285.428 3.47937C286.895 4.94711 287.308 7.1672 286.465 9.064L285.864 10.4156C284.659 13.1267 285.248 16.2999 287.346 18.3977L291.864 22.9156C294.349 25.4009 294.349 29.4303 291.864 31.9156L290.114 33.6656C288.595 35.1844 286.133 35.1844 284.614 33.6656C283.095 32.1468 283.095 29.6844 284.614 28.1656L286.364 26.4156M276.864 211.416C271.531 205.749 263.364 190.016 273.364 172.416M248.864 266.263C240.864 268.314 223.764 273.516 219.364 277.916C213.864 283.416 205.864 283.416 205.864 277.916C205.864 272.416 212.864 273.916 212.864 276.916" stroke="#1E1D1D" stroke-opacity="0.1" stroke-width="2"/>
</svg>
