<svg width="145" height="30" viewBox="0 0 145 30" fill="none" xmlns="http://www.w3.org/2000/svg">
<path d="M0.925781 29.0004V28.5804L1.68178 28.3284C2.24178 28.1324 2.61978 27.8664 2.81578 27.5304C3.01178 27.1944 3.10978 26.7464 3.10978 26.1864C3.13778 24.5064 3.15178 22.8124 3.15178 21.1044C3.15178 19.3964 3.15178 17.6884 3.15178 15.9804V14.3004C3.15178 12.6204 3.15178 10.9404 3.15178 9.26041C3.15178 7.55241 3.13778 5.85841 3.10978 4.17841C3.10978 3.61842 3.02578 3.17042 2.85778 2.83441C2.71778 2.49841 2.38178 2.23241 1.84978 2.03641L0.925781 1.70041V1.28041H21.2538L21.5478 8.25241H21.1278L18.7338 3.84241C18.4538 3.31041 18.1318 2.89041 17.7678 2.58242C17.4038 2.27441 16.8998 2.12041 16.2558 2.12041H9.49378C9.46578 4.10841 9.45178 6.13841 9.45178 8.21041C9.45178 10.2824 9.45178 12.3404 9.45178 14.3844H13.8198C14.4638 14.3844 14.9398 14.2444 15.2478 13.9644C15.5558 13.6844 15.8498 13.2784 16.1298 12.7464L17.0118 11.1504H17.4318V18.5004H17.0118L16.0878 16.9044C15.8078 16.4004 15.5138 15.9944 15.2058 15.6864C14.9258 15.3784 14.4638 15.2244 13.8198 15.2244H9.45178C9.45178 17.1844 9.45178 19.0604 9.45178 20.8524C9.45178 22.6164 9.46578 24.3524 9.49378 26.0604C9.49378 27.1524 10.0258 27.8664 11.0898 28.2024L12.3498 28.5804V29.0004H0.925781Z" fill="#1E1D1D"/>
<path d="M36.2612 29.7564C34.5532 29.7564 32.9012 29.4484 31.3052 28.8324C29.7372 28.2164 28.3232 27.3064 27.0632 26.1024C25.8312 24.8704 24.8512 23.3444 24.1232 21.5244C23.3952 19.7044 23.0312 17.5764 23.0312 15.1404C23.0312 12.7324 23.3952 10.6184 24.1232 8.79841C24.8512 6.97842 25.8452 5.46641 27.1052 4.26241C28.3652 3.03041 29.7792 2.10641 31.3472 1.49041C32.9432 0.846414 34.5812 0.524414 36.2612 0.524414C37.9692 0.524414 39.6072 0.832414 41.1752 1.44841C42.7712 2.03641 44.1852 2.94641 45.4172 4.17841C46.6772 5.38241 47.6712 6.90841 48.3992 8.75641C49.1272 10.5764 49.4912 12.7044 49.4912 15.1404C49.4912 17.5204 49.1272 19.6344 48.3992 21.4824C47.6712 23.3024 46.6772 24.8284 45.4172 26.0604C44.1852 27.2644 42.7712 28.1884 41.1752 28.8324C39.6072 29.4484 37.9692 29.7564 36.2612 29.7564ZM36.2612 28.8744C37.8012 28.8744 39.0472 28.4684 39.9992 27.6564C40.9512 26.8164 41.6372 25.4024 42.0572 23.4144C42.5052 21.3984 42.7292 18.6404 42.7292 15.1404C42.7292 11.6124 42.5052 8.85441 42.0572 6.86642C41.6372 4.85041 40.9512 3.43641 39.9992 2.62441C39.0472 1.78441 37.8012 1.36441 36.2612 1.36441C34.7492 1.36441 33.5172 1.78441 32.5652 2.62441C31.6132 3.43641 30.9132 4.85041 30.4652 6.86642C30.0452 8.85441 29.8352 11.6124 29.8352 15.1404C29.8352 18.6404 30.0452 21.3984 30.4652 23.4144C30.9132 25.4024 31.6132 26.8164 32.5652 27.6564C33.5172 28.4684 34.7492 28.8744 36.2612 28.8744Z" fill="#1E1D1D"/>
<path d="M50.5547 29.0004V28.5804L51.4367 28.2864C51.9967 28.0904 52.3607 27.8384 52.5287 27.5304C52.6967 27.1944 52.7807 26.7324 52.7807 26.1444V4.17841C52.7807 3.61842 52.6967 3.18441 52.5287 2.87641C52.3887 2.54041 52.0527 2.27441 51.5207 2.07841L50.5547 1.70041V1.28041H62.5667C65.8707 1.28041 68.4047 1.91041 70.1687 3.17041C71.9327 4.40241 72.8147 6.12441 72.8147 8.33641C72.8147 9.56841 72.3527 10.8004 71.4287 12.0324C70.5047 13.2644 69.0487 14.2164 67.0607 14.8884L72.8987 26.4804C73.1507 26.9564 73.4307 27.3484 73.7387 27.6564C74.0747 27.9364 74.5087 28.1884 75.0407 28.4124L75.5867 28.6224V29.0004H68.0687L61.8527 15.7704H58.9967V26.1444C58.9967 26.6764 59.0807 27.1104 59.2487 27.4464C59.4167 27.7824 59.7667 28.0344 60.2987 28.2024L61.3067 28.5804V29.0004H50.5547ZM58.9967 14.9304H61.0127C63.0287 14.9304 64.4847 14.3984 65.3807 13.3344C66.2767 12.2424 66.7247 10.6324 66.7247 8.50441C66.7247 6.34842 66.3047 4.75241 65.4647 3.71641C64.6247 2.65241 63.2107 2.12041 61.2227 2.12041H58.9967V14.9304Z" fill="#1E1D1D"/>
<path d="M76.9277 29.0004V28.5804L77.6837 28.2864C78.2437 28.0624 78.6217 27.7824 78.8177 27.4464C79.0417 27.1104 79.1537 26.6624 79.1537 26.1024V4.17841C79.1537 3.59041 79.0417 3.12841 78.8177 2.79241C78.6217 2.45641 78.2437 2.19041 77.6837 1.99442L76.9277 1.70041V1.28041H88.9817C92.3977 1.28041 94.8617 1.91041 96.3737 3.17041C97.8857 4.40241 98.6417 5.97041 98.6417 7.87441C98.6417 9.30241 98.0817 10.6044 96.9617 11.7804C95.8697 12.9284 93.9797 13.7404 91.2917 14.2164C94.3717 14.5524 96.6257 15.3644 98.0537 16.6524C99.4817 17.9124 100.196 19.4524 100.196 21.2724C100.196 22.1684 99.9997 23.0784 99.6077 24.0024C99.2157 24.8984 98.5437 25.7244 97.5917 26.4804C96.6677 27.2364 95.3937 27.8524 93.7697 28.3284C92.1457 28.7764 90.0877 29.0004 87.5957 29.0004H76.9277ZM85.3697 14.1744H87.1757C89.0517 14.1744 90.3957 13.7404 91.2077 12.8724C92.0477 12.0044 92.4677 10.4924 92.4677 8.33641C92.4677 6.09641 92.0897 4.50041 91.3337 3.54842C90.5777 2.59641 89.3457 2.12041 87.6377 2.12041H85.3697V14.1744ZM85.3697 28.1604H87.4697C89.5697 28.1604 91.1237 27.6004 92.1317 26.4804C93.1677 25.3604 93.6857 23.6104 93.6857 21.2304C93.6857 18.9904 93.1957 17.3944 92.2157 16.4424C91.2357 15.4904 89.6257 15.0144 87.3857 15.0144H85.3697V28.1604Z" fill="#1E1D1D"/>
<path d="M101.332 29.0004V28.5804L102.298 28.2024C102.774 28.0064 103.096 27.7544 103.264 27.4464C103.46 27.1104 103.558 26.6624 103.558 26.1024V4.17841C103.558 3.61842 103.474 3.18441 103.306 2.87641C103.166 2.54041 102.83 2.27441 102.298 2.07841L101.332 1.70041V1.28041H121.45L121.702 7.74841H121.282L119.476 3.80041C119.224 3.29641 118.958 2.89041 118.678 2.58242C118.398 2.27441 117.978 2.12041 117.418 2.12041H109.858V14.2584H114.352C114.912 14.2584 115.332 14.1184 115.612 13.8384C115.92 13.5304 116.186 13.1244 116.41 12.6204L117.25 10.9404H117.67V18.5004H117.25L116.41 16.7364C116.158 16.2324 115.892 15.8404 115.612 15.5604C115.332 15.2524 114.912 15.0984 114.352 15.0984H109.858V28.1604H118.342C118.902 28.1604 119.336 28.0204 119.644 27.7404C119.952 27.4324 120.204 27.0124 120.4 26.4804L122.122 22.5324H122.542L122.29 29.0004H101.332Z" fill="#1E1D1D"/>
<path d="M133.659 29.7564C132.119 29.7564 130.551 29.5604 128.955 29.1684C127.359 28.8044 126.029 28.3144 124.965 27.6984L125.175 21.9864H125.595L126.897 24.7164C127.289 25.5004 127.709 26.2004 128.157 26.8164C128.605 27.4044 129.221 27.8664 130.005 28.2024C130.565 28.4824 131.097 28.6784 131.601 28.7904C132.133 28.8744 132.721 28.9164 133.365 28.9164C135.073 28.9164 136.417 28.4544 137.397 27.5304C138.405 26.6064 138.909 25.4164 138.909 23.9604C138.909 22.5884 138.573 21.5244 137.901 20.7684C137.229 19.9844 136.151 19.2284 134.667 18.5004L132.945 17.7444C130.537 16.6804 128.647 15.4624 127.275 14.0904C125.931 12.6904 125.259 10.8424 125.259 8.54641C125.259 6.89441 125.679 5.46641 126.519 4.26241C127.387 3.05841 128.577 2.13441 130.089 1.49041C131.629 0.846414 133.421 0.524414 135.465 0.524414C136.949 0.524414 138.349 0.720414 139.665 1.11241C141.009 1.50441 142.171 2.03641 143.151 2.70841L142.899 7.74841H142.479L140.757 4.59841C140.281 3.61841 139.805 2.93241 139.329 2.54041C138.853 2.12041 138.307 1.82641 137.691 1.65841C137.327 1.54641 136.991 1.47641 136.683 1.44841C136.375 1.39241 135.983 1.36441 135.507 1.36441C134.079 1.36441 132.875 1.78441 131.895 2.62441C130.915 3.43641 130.425 4.54241 130.425 5.94241C130.425 7.37041 130.803 8.51841 131.559 9.38642C132.315 10.2264 133.421 10.9824 134.877 11.6544L136.809 12.4944C139.497 13.6704 141.429 14.9304 142.605 16.2744C143.781 17.5904 144.369 19.2984 144.369 21.3984C144.369 23.8624 143.431 25.8784 141.555 27.4464C139.707 28.9864 137.075 29.7564 133.659 29.7564Z" fill="#1E1D1D"/>
</svg>
