<svg width="232" height="193" viewBox="0 0 232 193" fill="none" xmlns="http://www.w3.org/2000/svg">
<circle cx="4" cy="29" r="4" fill="#1E1D1D" fill-opacity="0.15"/>
<circle cx="4" cy="61" r="4" fill="#1E1D1D" fill-opacity="0.05"/>
<circle cx="4" cy="93" r="4" fill="#1E1D1D" fill-opacity="0.05"/>
<circle cx="36" cy="29" r="4" fill="#1E1D1D" fill-opacity="0.15"/>
<circle cx="36" cy="61" r="4" fill="#1E1D1D" fill-opacity="0.05"/>
<circle cx="36" cy="93" r="4" fill="#1E1D1D" fill-opacity="0.05"/>
<circle cx="68" cy="-3" r="4" fill="#1E1D1D" fill-opacity="0.15"/>
<circle cx="68" cy="29" r="4" fill="#1E1D1D" fill-opacity="0.15"/>
<circle cx="68" cy="61" r="4" fill="#1E1D1D" fill-opacity="0.05"/>
<circle cx="68" cy="93" r="4" fill="#1E1D1D" fill-opacity="0.05"/>
<circle cx="68" cy="125" r="4" fill="#1E1D1D" fill-opacity="0.15"/>
<circle cx="68" cy="157" r="4" fill="#1E1D1D" fill-opacity="0.15"/>
<circle cx="68" cy="189" r="4" fill="#1E1D1D" fill-opacity="0.15"/>
<circle cx="100" cy="-3" r="4" fill="#1E1D1D" fill-opacity="0.15"/>
<circle cx="100" cy="29" r="4" fill="#1E1D1D" fill-opacity="0.15"/>
<circle cx="100" cy="61" r="4" fill="#1E1D1D" fill-opacity="0.05"/>
<circle cx="100" cy="93" r="4" fill="#1E1D1D" fill-opacity="0.05"/>
<circle cx="100" cy="125" r="4" fill="#1E1D1D" fill-opacity="0.15"/>
<circle cx="100" cy="157" r="4" fill="#1E1D1D" fill-opacity="0.15"/>
<circle cx="100" cy="189" r="4" fill="#1E1D1D" fill-opacity="0.15"/>
<circle cx="132" cy="-3" r="4" fill="#1E1D1D" fill-opacity="0.05"/>
<circle cx="132" cy="29" r="4" fill="#1E1D1D" fill-opacity="0.05"/>
<circle cx="164" cy="-3" r="4" fill="#1E1D1D" fill-opacity="0.05"/>
<circle cx="164" cy="29" r="4" fill="#1E1D1D" fill-opacity="0.05"/>
</svg>
